{"title":"A Troca.2008.DVDRip.XviD-nsiervi","uid":4840341,"size":869812509,"categoryP":"video","categoryS":"movies","magnet":"?xt=urn:btih:0a740fda4e96d78b98f19baa191be5a85e9c45e1&amp;dn=A+Troca.2008.DVDRip.XviD-nsiervi&amp;tr=udp%3A%2F%2Ftracker.openbittorrent.com%3A80&amp;tr=udp%3A%2F%2Fopen.demonii.com%3A1337&amp;tr=udp%3A%2F%2Ftracker.coppersurfer.tk%3A6969&amp;tr=udp%3A%2F%2Fexodus.desync.com%3A6969","seeders":5,"leechers":1,"uploader":"nsiervi","files":5,"time":1239475788,"description":"A Troca\n( Changeling ) ( Audio PT-BR )\n\n\nSinopse:\nChristine Collin (Angelina Jolie) ÃƒÂ© uma mÃƒÂ£e que ora fervorosamente para que seu filho Walter (Gattlin Griffith) retorne para casa. O menino foi seqÃƒÂ¼estrado em uma manhÃƒÂ£ de sÃƒÂ¡bado, apÃƒÂ³s ela ter saÃƒÂ­do para trabalhar. Com a ajuda do reverendo Briegleb (John Malkovich) e apÃƒÂ³s meses de buscas intensas, finalmente, a polÃƒÂ­cia encontra o garoto. Mas algo estÃƒÂ¡ errado e, em seu coraÃƒÂ§ÃƒÂ£o, Christine desconfia que ele nÃƒÂ£o seja seu filho verdadeiro.\n\nElenco:\nAngelina Jolie ... \nChristine Collins\nGattlin Griffith ... Walter Collins\nMichelle Martin ... Sandy\nJan Devereaux ... Operator #1\nErica Grant ... Operator #2\nAntonia Bennett ... Operator #3\nKerri Randles ... Operator #4\nFrank Wood ... Ben Harris\nMorgan Eastwood ... Girl on Tricycle\nMadison Hodges ... Neighborhood Girl\nJohn Malkovich ... Rev. Gustav Briegleb\nColm Feore ... Chief James E. Davis\nDevon Conti ... Arthur Hutchins\nRic Sarabia ... Man at Diner\nJ.P. Bumstead ... Cook\nJeffrey Donovan ... Capt. J.J. Jones\nDebra Christofferson ... Police Matron at Train\n\nDados do filme:\nTÃƒÂ­tulo no Brasil: A Troca\nTÃƒÂ­tulo Original: Changeling\nPaÃƒÂ­s de Origem: EUA\nGÃƒÂªnero: Suspense\nTempo de DuraÃƒÂ§ÃƒÂ£o: 140 minutos\nAno de LanÃƒÂ§amento: 2008\nEstrÃƒÂ©ia no Brasil: 06/02/2009\nSite Oficial: http://www.changelingmovie.net\nEstÃƒÂºdio/Distrib.: Paramount Pictures Brasil\nDireÃƒÂ§ÃƒÂ£o: Clint Eastwood\n\nLink IMDB: http://www.imdb.com/title/tt0824747/\n\nDados do arquivo:\nQualidade do VÃƒÂ­deo: DVDrip\nAno de LanÃƒÂ§amento: 2008\nTempo de DuraÃƒÂ§ÃƒÂ£o: 2h 21 min\nVÃƒÂ­deo Codec: XviD\nAudio Codec: Mp3\nResoluÃƒÂ§ÃƒÂ£o: 640 X 272\nFormato de Tela: WideScreen(16x9)\nFrame Rate: 23fps\nTamanho: 800Mb\nLegendas: Sem Legenda\n\nScreens:\n[img]http://img5.imageshack.us/img5/3505/vlcsnap316074g.png[/img]\n[img]http://img12.imageshack.us/img12/3061/vlcsnap316227.png[/img]\n\n[quote]General\nComplete name                    : E:A Troca.2008.DVDRip.XviD-nsierviA Troca.2008.DVDRip.XviD-nsiervi.avi\nFormat                           : AVI\nFormat/Info                      : Audio Video Interleave\nFile size                        : 829 MiB\nDuration                         : 2h 21mn\nOverall bit rate                 : 819 Kbps\nWriting application              : VirtualDubMod 1.5.10.2 (build 2542/release)\nWriting library                  : VirtualDub build 30586/release\n\nVideo\nFormat                           : MPEG-4 Visual\nFormat profile                   : Streaming Video@L1\nFormat settings, BVOP            : Yes\nFormat settings, QPel            : No\nFormat settings, GMC             : No warppoints\nFormat settings, Matrix          : Default\nMuxing mode                      : Packed bitstream\nCodec ID                         : XVID\nCodec ID/Hint                    : XviD\nDuration                         : 2h 21mn\nBit rate                         : 671 Kbps\nWidth                            : 640 pixels\nHeight                           : 272 pixels\nDisplay aspect ratio             : 2.35\nFrame rate                       : 23.976 fps\nResolution                       : 24 bits\nColorimetry                      : 4:2:0\nScan type                        : Progressive\nBits/(Pixel*Frame)               : 0.161\nStream size                      : 679 MiB (82%)\nWriting library                  : XviD 1.2.1 (UTC 2008-12-04)\n\nAudio\nFormat                           : MPEG Audio\nFormat version                   : Version 1\nFormat profile                   : Layer 3\nCodec ID                         : 55\nCodec ID/Hint                    : MP3\nDuration                         : 2h 21mn\nBit rate mode                    : Variable\nBit rate                         : 135 Kbps\nChannel(s)                       : 2 channels\nSampling rate                    : 48.0 KHz\nResolution                       : 16 bits\nStream size                      : 137 MiB (17%)\nAlignment                        : Aligned on interleaves\nInterleave, duration             : 24 ms (0.58 video frame)\nInterleave, preload duration     : 142 ms[/quote]\n\nThx From Brazil, Help Seend And Enjoy","torrent":{"xt":"urn:btih:0a740fda4e96d78b98f19baa191be5a85e9c45e1","amp;dn":"A+Troca.2008.DVDRip.XviD-nsiervi","amp;tr":["udp%3A%2F%2Ftracker.openbittorrent.com%3A80","udp%3A%2F%2Fopen.demonii.com%3A1337","udp%3A%2F%2Ftracker.coppersurfer.tk%3A6969","udp%3A%2F%2Fexodus.desync.com%3A6969"],"infoHash":"0a740fda4e96d78b98f19baa191be5a85e9c45e1","infoHashBuffer":{"type":"Buffer","data":[10,116,15,218,78,150,215,139,152,241,155,170,25,27,229,168,94,156,69,225]},"announce":[],"urlList":[]}}